<?xml version="1.0" encoding="iso-8859-1"?>
<!-- Generator: Adobe Illustrator 19.0.0, SVG Export Plug-In . SVG Version: 6.00 Build 0)  -->
<svg version="1.1" id="Capa_1" xmlns="http://www.w3.org/2000/svg" xmlns:xlink="http://www.w3.org/1999/xlink" x="0px" y="0px"
	 viewBox="0 0 512 512" style="enable-background:new 0 0 512 512;" xml:space="preserve">
<path style="fill:#50BB65;" d="M43.39,121.492h425.22l0,0V468.61l0,0H69.424c-14.379,0-26.034-11.654-26.034-26.034V121.492
	L43.39,121.492z"/>
<polygon style="fill:#E6E6E6;" points="468.61,312.407 355.797,312.407 355.797,251.661 468.61,251.661 468.61,199.593 
	303.729,199.593 303.729,312.407 234.305,312.407 234.305,121.492 182.237,121.492 182.237,208.271 86.78,208.271 86.78,260.339 
	182.237,260.339 182.237,468.61 234.305,468.61 234.305,364.475 468.61,364.475 "/>
<circle style="fill:#29ABE2;" cx="407.864" cy="399.186" r="104.136"/>
<g>
	<rect x="329.763" y="390.508" style="fill:#0071BC;" width="156.203" height="17.356"/>
	
		<rect x="346.5" y="390.514" transform="matrix(-0.7071 0.7071 -0.7071 -0.7071 978.5184 393.0678)" style="fill:#0071BC;" width="122.705" height="17.356"/>
	<rect x="399.186" y="321.085" style="fill:#0071BC;" width="17.356" height="156.203"/>
</g>
<polygon style="fill:#DA4836;" points="382.221,424.83 459.932,451.254 433.508,373.543 355.797,347.119 "/>
<polygon style="fill:#FFFFFF;" points="382.221,424.83 459.932,451.254 433.508,373.543 "/>
<rect x="399.186" y="390.508" style="fill:#F7931E;" width="17.356" height="17.356"/>
<g>
	<path style="fill:#B3B3B3;" d="M86.78,512H60.746C27.214,511.957,0.043,484.786,0,451.254V338.441h17.356v112.814
		c0.026,23.951,19.439,43.364,43.39,43.39H86.78V512z"/>
	<rect y="303.729" style="fill:#B3B3B3;" width="17.356" height="17.356"/>
	<path style="fill:#B3B3B3;" d="M512,199.593h-17.356v-86.78c0-9.589-7.767-17.356-17.356-17.356h-43.39V78.102h43.39
		c19.17,0,34.712,15.542,34.712,34.712V199.593z"/>
	<rect x="494.644" y="216.949" style="fill:#B3B3B3;" width="17.356" height="17.356"/>
</g>
<g>
	<rect x="260.339" y="390.508" style="fill:#006837;" width="17.356" height="17.356"/>
	<rect x="260.339" y="269.017" style="fill:#006837;" width="17.356" height="17.356"/>
	<rect x="138.847" y="286.373" style="fill:#006837;" width="17.356" height="17.356"/>
	<rect x="138.847" y="164.881" style="fill:#006837;" width="17.356" height="17.356"/>
</g>
<path style="fill:#DA4836;" d="M355.797,60.746c0,52.068-60.746,104.136-60.746,104.136s-60.746-52.068-60.746-104.136
	C234.305,27.197,261.502,0,295.051,0S355.797,27.197,355.797,60.746z"/>
<circle style="fill:#E6E6E6;" cx="295.051" cy="60.746" r="26.034"/>
<path style="fill:#009245;" d="M43.39,277.695V121.492c0-14.379,11.655-26.034,26.034-26.034H86.78v321.085H69.424
	c-14.379,0-26.034,11.655-26.034,26.034V277.695z"/>
<g>
</g>
<g>
</g>
<g>
</g>
<g>
</g>
<g>
</g>
<g>
</g>
<g>
</g>
<g>
</g>
<g>
</g>
<g>
</g>
<g>
</g>
<g>
</g>
<g>
</g>
<g>
</g>
<g>
</g>
</svg>
