<svg width="26" height="41" viewBox="0 0 26 41" fill="none" xmlns="http://www.w3.org/2000/svg">
<g filter="url(#filter0_f)">
<ellipse cx="13" cy="36.5" rx="7" ry="2.5" fill="black" fill-opacity="0.15"/>
</g>
<mask id="path-2-outside-1" maskUnits="userSpaceOnUse" x="0" y="2.63672" width="26" height="34" fill="black">
<rect fill="white" y="2.63672" width="26" height="34"/>
<path fill-rule="evenodd" clip-rule="evenodd" d="M20.0993 25.5334C23.0712 23.327 25 19.7705 25 15.7591C25 9.06407 19.6274 3.63672 13 3.63672C6.37258 3.63672 1 9.06407 1 15.7591C1 19.7706 2.92885 23.327 5.90076 25.5334C8.16058 27.2536 11.3467 29.9679 12.0759 34.3379C12.1523 34.7957 12.5359 35.1511 13 35.1511C13.4641 35.1511 13.8477 34.7957 13.9241 34.3379C14.6534 29.9678 17.8394 27.2536 20.0993 25.5334Z"/>
</mask>
<path fill-rule="evenodd" clip-rule="evenodd" d="M20.0993 25.5334C23.0712 23.327 25 19.7705 25 15.7591C25 9.06407 19.6274 3.63672 13 3.63672C6.37258 3.63672 1 9.06407 1 15.7591C1 19.7706 2.92885 23.327 5.90076 25.5334C8.16058 27.2536 11.3467 29.9679 12.0759 34.3379C12.1523 34.7957 12.5359 35.1511 13 35.1511C13.4641 35.1511 13.8477 34.7957 13.9241 34.3379C14.6534 29.9678 17.8394 27.2536 20.0993 25.5334Z" fill="#A8BA34"/>
<path d="M20.0993 25.5334L19.5031 24.7305L19.4936 24.7377L20.0993 25.5334ZM5.90076 25.5334L6.50649 24.7377L6.49687 24.7305L5.90076 25.5334ZM12.0759 34.3379L11.0895 34.5025L12.0759 34.3379ZM13.9241 34.3379L14.9105 34.5025L13.9241 34.3379ZM20.6954 26.3363C23.9124 23.9478 26 20.0979 26 15.7591H24C24 19.4432 22.2299 22.7061 19.5031 24.7305L20.6954 26.3363ZM26 15.7591C26 8.52137 20.1892 2.63672 13 2.63672V4.63672C19.0656 4.63672 24 9.60677 24 15.7591H26ZM13 2.63672C5.81076 2.63672 0 8.52137 0 15.7591H2C2 9.60677 6.93441 4.63672 13 4.63672V2.63672ZM0 15.7591C0 20.098 2.08756 23.9478 5.30465 26.3363L6.49687 24.7305C3.77015 22.7061 2 19.4432 2 15.7591H0ZM13.0622 34.1733C12.264 29.3899 8.78196 26.4698 6.50645 24.7377L5.29507 26.3291C7.53921 28.0374 10.4293 30.5458 11.0895 34.5025L13.0622 34.1733ZM13 34.1511C13.0128 34.1511 13.0263 34.1538 13.038 34.1584C13.0491 34.1627 13.0557 34.1677 13.0588 34.1705C13.0638 34.175 13.0627 34.1761 13.0622 34.1733L11.0895 34.5025C11.2386 35.396 12.0015 36.1511 13 36.1511V34.1511ZM12.9378 34.1733C12.9373 34.1761 12.9362 34.175 12.9412 34.1705C12.9443 34.1677 12.9509 34.1627 12.962 34.1584C12.9737 34.1538 12.9872 34.1511 13 34.1511V36.1511C13.9985 36.1511 14.7614 35.396 14.9105 34.5025L12.9378 34.1733ZM19.4936 24.7377C17.2181 26.4698 13.736 29.3899 12.9378 34.1733L14.9105 34.5025C15.5707 30.5458 18.4608 28.0374 20.7049 26.3291L19.4936 24.7377Z" fill="white" mask="url(#path-2-outside-1)"/>
<g clip-path="url(#clip0)">
<path d="M13.4207 14.4274C13.7167 14.4274 14.0126 14.5394 14.2366 14.7634C14.6846 15.2114 14.6846 15.9473 14.2366 16.3953C14.0126 16.6192 13.7167 16.7312 13.4207 16.7312C13.1247 16.7312 12.8287 16.6192 12.6048 16.3953C12.1568 15.9473 12.1568 15.2114 12.6048 14.7634C12.8287 14.5474 13.1247 14.4274 13.4207 14.4274ZM13.4207 13.4675C12.8527 13.4675 12.3248 13.6835 11.9248 14.0835C11.1009 14.9074 11.1009 16.2513 11.9248 17.0752C12.3248 17.4752 12.8527 17.6911 13.4207 17.6911C13.9886 17.6911 14.5166 17.4752 14.9165 17.0752C15.7405 16.2513 15.7405 14.9074 14.9165 14.0835C14.5166 13.6915 13.9806 13.4675 13.4207 13.4675Z" fill="#F4F4F4"/>
<path d="M13.4206 11.9477C15.4284 11.9477 17.0603 13.5795 17.0603 15.5874C17.0603 17.5952 15.4284 19.227 13.4206 19.227C11.4128 19.227 9.78095 17.5952 9.78095 15.5874C9.78095 13.5795 11.4048 11.9477 13.4206 11.9477ZM13.4206 10.9878C10.8848 10.9878 8.82104 13.0516 8.82104 15.5874C8.82104 18.1231 10.8848 20.1869 13.4206 20.1869C15.9564 20.1869 18.0202 18.1231 18.0202 15.5874C18.0202 13.0516 15.9564 10.9878 13.4206 10.9878Z" fill="#F4F4F4"/>
<path d="M13.4206 9.45991C16.8043 9.45991 19.548 12.2037 19.548 15.5873C19.548 18.971 16.8043 21.7148 13.4206 21.7148C10.0369 21.7148 7.29316 18.971 7.29316 15.5873C7.29316 12.2037 10.0369 9.45991 13.4206 9.45991ZM13.4206 8.5C9.50895 8.5 6.33325 11.6757 6.33325 15.5873C6.33325 19.499 9.50895 22.6747 13.4206 22.6747C17.3322 22.6747 20.5079 19.499 20.5079 15.5873C20.5079 11.6757 17.3242 8.5 13.4206 8.5Z" fill="#F4F4F4"/>
<path d="M16.5231 19.0652C16.9649 19.0652 17.323 18.707 17.323 18.2653C17.323 17.8235 16.9649 17.4653 16.5231 17.4653C16.0813 17.4653 15.7231 17.8235 15.7231 18.2653C15.7231 18.707 16.0813 19.0652 16.5231 19.0652Z" fill="#A8BA34"/>
<path d="M16.5231 17.4733C16.7311 17.4733 16.9311 17.5533 17.0911 17.7053C17.403 18.0173 17.403 18.5212 17.0911 18.8332C16.9311 18.9932 16.7311 19.0652 16.5231 19.0652C16.3151 19.0652 16.1152 18.9852 15.9552 18.8332C15.6432 18.5212 15.6432 18.0173 15.9552 17.7053C16.1152 17.5453 16.3151 17.4733 16.5231 17.4733ZM16.5231 16.8334C16.1392 16.8334 15.7792 16.9854 15.5072 17.2573C15.2352 17.5293 15.0833 17.8893 15.0833 18.2732C15.0833 18.6572 15.2352 19.0172 15.5072 19.2891C15.7792 19.5611 16.1392 19.7131 16.5231 19.7131C16.9071 19.7131 17.267 19.5611 17.539 19.2891C18.099 18.7292 18.099 17.8173 17.539 17.2573C17.267 16.9774 16.9071 16.8334 16.5231 16.8334Z" fill="#F4F4F4"/>
<path d="M8.48498 11.9636C8.92677 11.9636 9.28491 11.6055 9.28491 11.1637C9.28491 10.7219 8.92677 10.3638 8.48498 10.3638C8.0432 10.3638 7.68506 10.7219 7.68506 11.1637C7.68506 11.6055 8.0432 11.9636 8.48498 11.9636Z" fill="#A8BA34"/>
<path d="M8.48494 10.3638C8.69292 10.3638 8.8929 10.4438 9.05288 10.5958C9.36485 10.9078 9.36485 11.4117 9.05288 11.7237C8.8929 11.8837 8.69292 11.9557 8.48494 11.9557C8.27696 11.9557 8.07697 11.8757 7.91699 11.7237C7.60502 11.4117 7.60502 10.9078 7.91699 10.5958C8.07697 10.4438 8.27696 10.3638 8.48494 10.3638ZM8.48494 9.72388C8.10097 9.72388 7.74101 9.87586 7.46903 10.1478C6.90909 10.7078 6.90909 11.6197 7.46903 12.1796C7.74101 12.4516 8.10097 12.6036 8.48494 12.6036C8.8689 12.6036 9.22886 12.4516 9.50084 12.1796C10.0608 11.6197 10.0608 10.7078 9.50084 10.1478C9.22886 9.87586 8.8689 9.72388 8.48494 9.72388Z" fill="#F4F4F4"/>
<path d="M8.12512 20.4508C8.56691 20.4508 8.92505 20.0927 8.92505 19.6509C8.92505 19.2091 8.56691 18.851 8.12512 18.851C7.68333 18.851 7.3252 19.2091 7.3252 19.6509C7.3252 20.0927 7.68333 20.4508 8.12512 20.4508Z" fill="#A8BA34"/>
<path d="M8.12517 18.851C8.56513 18.851 8.92509 19.211 8.92509 19.6509C8.92509 20.0909 8.56513 20.4508 8.12517 20.4508C7.68521 20.4508 7.32524 20.0909 7.32524 19.6509C7.32524 19.211 7.68521 18.851 8.12517 18.851ZM8.12517 18.2111C7.33324 18.2111 6.6853 18.859 6.6853 19.6509C6.6853 20.4428 7.33324 21.0908 8.12517 21.0908C8.91709 21.0908 9.56503 20.4428 9.56503 19.6509C9.56503 18.859 8.91709 18.2111 8.12517 18.2111Z" fill="#F4F4F4"/>
<path d="M18.4362 11.9957C18.8779 11.9957 19.2361 11.6376 19.2361 11.1958C19.2361 10.754 18.8779 10.3959 18.4362 10.3959C17.9944 10.3959 17.6362 10.754 17.6362 11.1958C17.6362 11.6376 17.9944 11.9957 18.4362 11.9957Z" fill="#A8BA34"/>
<path d="M18.4362 10.4039C18.8762 10.4039 19.2361 10.7638 19.2361 11.2038C19.2361 11.6437 18.8762 12.0037 18.4362 12.0037C17.9962 12.0037 17.6363 11.6437 17.6363 11.2038C17.6363 10.7558 17.9962 10.4039 18.4362 10.4039ZM18.4362 9.76392C17.6443 9.76392 16.9963 10.4119 16.9963 11.2038C16.9963 11.9957 17.6443 12.6436 18.4362 12.6436C19.2281 12.6436 19.8761 11.9957 19.8761 11.2038C19.8761 10.4119 19.2281 9.76392 18.4362 9.76392Z" fill="#F4F4F4"/>
</g>
<defs>
<filter id="filter0_f" x="4" y="32" width="18" height="9" filterUnits="userSpaceOnUse" color-interpolation-filters="sRGB">
<feFlood flood-opacity="0" result="BackgroundImageFix"/>
<feBlend mode="normal" in="SourceGraphic" in2="BackgroundImageFix" result="shape"/>
<feGaussianBlur stdDeviation="1" result="effect1_foregroundBlur"/>
</filter>
<clipPath id="clip0">
<rect width="15" height="15" fill="white" transform="translate(6.33325 8.5)"/>
</clipPath>
</defs>
</svg>
