<?xml version="1.0"?>
<svg xmlns="http://www.w3.org/2000/svg" id="filled_outline" data-name="filled outline" viewBox="0 0 512 512" width="512" height="512"><rect x="216" y="24" width="272" height="336" style="fill:#548aff"/><rect x="256" y="64" width="192" height="256" style="fill:#9ce6ed"/><polygon points="256 176 352 261.333 352 320 256 320 256 176" style="fill:#00b55b"/><polygon points="448 248 392 208 256 280 256 320 448 320 448 248" style="fill:#02c26a"/><path d="M224,224a30.7386,30.7386,0,0,0,29.82083-23.2834L256,192h0a24,24,0,0,0,24-24V96a24,24,0,0,0-24-24h0a24,24,0,0,1-24-24v0a24,24,0,0,0-24-24H185.88853A28.94425,28.94425,0,0,0,160,40v0a28.94425,28.94425,0,0,0-25.88852-16H112A24,24,0,0,0,88,48v0A24,24,0,0,1,64,72h0A24,24,0,0,0,40,96v72a24,24,0,0,0,24,24h0l2.17915,8.7166A30.7386,30.7386,0,0,0,96,224Z" style="fill:#f78e00"/><path d="M224,416l72-88V304a40,40,0,0,0-40-40H224V168H96v96H64a40,40,0,0,0-40,40v24l72,88Z" style="fill:#ffc431"/><path d="M112,168v32.00006A63.99993,63.99993,0,0,0,175.99993,264H224V168Z" style="fill:#ffb401"/><polygon points="264 416 56 416 40 440 40 488 280 488 280 440 264 416" style="fill:#ffc431"/><polygon points="264 416 56 416 40 440 280 440 264 416" style="fill:#ffb401"/><circle cx="344" cy="152" r="32" style="fill:#ffa100"/><path d="M224,104H170.11809a32,32,0,0,1-27.43977-15.53614L128,64,116.0231,93.94225A16,16,0,0,1,101.16747,104H96v80.00006A63.99994,63.99994,0,0,0,159.99994,248h.00012A63.99994,63.99994,0,0,0,224,184.00006Z" style="fill:#ffc431"/><circle cx="128" cy="136" r="8"/><circle cx="192" cy="136" r="8"/><path d="M176,152V128H160v24a8.00917,8.00917,0,0,1-8,8h-8v16h8A24.02718,24.02718,0,0,0,176,152Z"/><path d="M120.84473,195.57812A36.74411,36.74411,0,0,0,153.88867,216H176V200H153.88867a20.83107,20.83107,0,0,1-18.7334-11.57812Z"/><path d="M304,328V304a48.054,48.054,0,0,0-48-48H232V231.16956a38.68218,38.68218,0,0,0,29.583-28.51282l.82422-3.30127A32.05513,32.05513,0,0,0,288,168V96a32.03635,32.03635,0,0,0-32-32,16.01833,16.01833,0,0,1-16-16,32.03635,32.03635,0,0,0-32-32H185.88867A36.7466,36.7466,0,0,0,160,26.55225,36.7466,36.7466,0,0,0,134.11133,16H112A32.03635,32.03635,0,0,0,80,48,16.01833,16.01833,0,0,1,64,64,32.03635,32.03635,0,0,0,32,96v72a32.05513,32.05513,0,0,0,25.59277,31.35547l.8252,3.30224A38.67965,38.67965,0,0,0,88,231.16956V256H64a48.054,48.054,0,0,0-48,48v24a7.99738,7.99738,0,0,0,1.80859,5.06592L79.11816,408H56a7.99943,7.99943,0,0,0-6.65625,3.5625l-16,24A7.99983,7.99983,0,0,0,32,440v48a8.00008,8.00008,0,0,0,8,8H280a8.00008,8.00008,0,0,0,8-8V440a7.99983,7.99983,0,0,0-1.34375-4.4375l-16-24A7.99943,7.99943,0,0,0,264,408H240.88184l61.30957-74.93408A7.99738,7.99738,0,0,0,304,328ZM104,111.81885a23.8573,23.8573,0,0,0,19.45117-14.90528l5.98731-14.96777,6.37988,10.63379A40.20179,40.20179,0,0,0,170.11816,112H216v72a56,56,0,0,1-112,0Zm-30.05957,86.958-2.17871-8.7168A8.00106,8.00106,0,0,0,64,184a16.01833,16.01833,0,0,1-16-16V96A16.01833,16.01833,0,0,1,64,80,32.03635,32.03635,0,0,0,96,48a16.01833,16.01833,0,0,1,16-16h22.11133a20.83107,20.83107,0,0,1,18.7334,11.57812,8.00009,8.00009,0,0,0,14.31054,0A20.83107,20.83107,0,0,1,185.88867,32H208a16.01833,16.01833,0,0,1,16,16,32.03635,32.03635,0,0,0,32,32,16.01833,16.01833,0,0,1,16,16v72a16.01833,16.01833,0,0,1-16,16,8.00106,8.00106,0,0,0-7.76172,6.06006l-2.17773,8.71582A22.69436,22.69436,0,0,1,232,214.53723V112h16V96H170.11816a24.11843,24.11843,0,0,1-20.5791-11.65234L134.86035,59.88379a8.00026,8.00026,0,0,0-14.28808,1.145L108.5957,90.97119A7.96217,7.96217,0,0,1,101.167,96H72v16H88V214.53729A22.69138,22.69138,0,0,1,73.94043,198.77686ZM272,442.42236V480H48V442.42236L60.28125,424h199.4375Zm16-117.27783L220.20923,408H99.79077L32,325.14453V304a32.03635,32.03635,0,0,1,32-32H96a8.00008,8.00008,0,0,0,8-8V229.18494a71.88213,71.88213,0,0,0,112,0V264a8.00008,8.00008,0,0,0,8,8h32a32.03635,32.03635,0,0,1,32,32Z"/><path d="M190.46387,296.95447a117.12272,117.12272,0,0,0,8.66992-31.98377l-15.88086-1.9414a101.77391,101.77391,0,0,1-23.75879,53.73449A47.97494,47.97494,0,0,0,120,296H88v16h32a32.03635,32.03635,0,0,1,32,32v16h16V344a32.03635,32.03635,0,0,1,32-32h32V296H200A48.03865,48.03865,0,0,0,190.46387,296.95447Z"/><path d="M488,16H256V32H468.686l-24,24H288V72H440V232.45422l-43.34961-30.964a7.99951,7.99951,0,0,0-8.39355-.56054L330.4917,231.51135l-37.17725-33.04651-10.6289,11.959L315.39844,239.502l-23.1416,12.25147,7.48632,14.14062,91.62989-48.51025L440,252.11719V312H320v16H444.686l24,24H304v16H488a8.00008,8.00008,0,0,0,8-8V24A8.00008,8.00008,0,0,0,488,16ZM456,67.314l24-24V340.686l-24-24Z"/><path d="M384,152a40,40,0,1,0-40,40A40.04552,40.04552,0,0,0,384,152Zm-64,0a24,24,0,1,1,24,24A24.0275,24.0275,0,0,1,320,152Z"/></svg>
