<svg width="26" height="41" viewBox="0 0 26 41" fill="none" xmlns="http://www.w3.org/2000/svg">
<g filter="url(#filter0_f)">
<ellipse cx="13" cy="36.5" rx="7" ry="2.5" fill="black" fill-opacity="0.15"/>
</g>
<mask id="path-2-outside-1" maskUnits="userSpaceOnUse" x="0" y="2.63672" width="26" height="34" fill="black">
<rect fill="white" y="2.63672" width="26" height="34"/>
<path fill-rule="evenodd" clip-rule="evenodd" d="M20.0993 25.5334C23.0712 23.327 25 19.7705 25 15.7591C25 9.06407 19.6274 3.63672 13 3.63672C6.37258 3.63672 1 9.06407 1 15.7591C1 19.7706 2.92885 23.327 5.90076 25.5334C8.16058 27.2536 11.3467 29.9679 12.0759 34.3379C12.1523 34.7957 12.5359 35.1511 13 35.1511C13.4641 35.1511 13.8477 34.7957 13.9241 34.3379C14.6534 29.9678 17.8394 27.2536 20.0993 25.5334Z"/>
</mask>
<path fill-rule="evenodd" clip-rule="evenodd" d="M20.0993 25.5334C23.0712 23.327 25 19.7705 25 15.7591C25 9.06407 19.6274 3.63672 13 3.63672C6.37258 3.63672 1 9.06407 1 15.7591C1 19.7706 2.92885 23.327 5.90076 25.5334C8.16058 27.2536 11.3467 29.9679 12.0759 34.3379C12.1523 34.7957 12.5359 35.1511 13 35.1511C13.4641 35.1511 13.8477 34.7957 13.9241 34.3379C14.6534 29.9678 17.8394 27.2536 20.0993 25.5334Z" fill="#2A6EA9"/>
<path d="M20.0993 25.5334L19.5031 24.7305L19.4936 24.7377L20.0993 25.5334ZM5.90076 25.5334L6.50649 24.7377L6.49687 24.7305L5.90076 25.5334ZM12.0759 34.3379L11.0895 34.5025L12.0759 34.3379ZM13.9241 34.3379L14.9105 34.5025L13.9241 34.3379ZM20.6954 26.3363C23.9124 23.9478 26 20.0979 26 15.7591H24C24 19.4432 22.2299 22.7061 19.5031 24.7305L20.6954 26.3363ZM26 15.7591C26 8.52137 20.1892 2.63672 13 2.63672V4.63672C19.0656 4.63672 24 9.60677 24 15.7591H26ZM13 2.63672C5.81076 2.63672 0 8.52137 0 15.7591H2C2 9.60677 6.93441 4.63672 13 4.63672V2.63672ZM0 15.7591C0 20.098 2.08756 23.9478 5.30465 26.3363L6.49687 24.7305C3.77015 22.7061 2 19.4432 2 15.7591H0ZM13.0622 34.1733C12.264 29.3899 8.78196 26.4698 6.50645 24.7377L5.29507 26.3291C7.53921 28.0374 10.4293 30.5458 11.0895 34.5025L13.0622 34.1733ZM13 34.1511C13.0128 34.1511 13.0263 34.1538 13.038 34.1584C13.0491 34.1627 13.0557 34.1677 13.0588 34.1705C13.0638 34.175 13.0627 34.1761 13.0622 34.1733L11.0895 34.5025C11.2386 35.396 12.0015 36.1511 13 36.1511V34.1511ZM12.9378 34.1733C12.9373 34.1761 12.9362 34.175 12.9412 34.1705C12.9443 34.1677 12.9509 34.1627 12.962 34.1584C12.9737 34.1538 12.9872 34.1511 13 34.1511V36.1511C13.9985 36.1511 14.7614 35.396 14.9105 34.5025L12.9378 34.1733ZM19.4936 24.7377C17.2181 26.4698 13.736 29.3899 12.9378 34.1733L14.9105 34.5025C15.5707 30.5458 18.4608 28.0374 20.7049 26.3291L19.4936 24.7377Z" fill="white" mask="url(#path-2-outside-1)"/>
<path d="M11.0022 14.9286C11.0022 15.7284 10.6997 16.454 10.2222 16.9983H15.7777C15.3002 16.4458 14.9977 15.7284 14.9977 14.9286H11.0022Z" fill="#F4F4F4"/>
<path d="M18.0776 10.1666H7.87606C6.09931 10.1666 4.66675 11.5816 4.66675 13.3366C4.66675 15.2203 6.32257 16.5158 7.58769 16.5158C8.86211 16.5158 9.92258 15.4867 9.92258 14.2095V14.0258C9.92258 13.0794 9.2063 12.4821 8.4156 12.4821C7.2435 12.4821 7.2249 13.4653 7.2249 13.502C7.2249 14.2095 7.82025 14.2371 7.95048 14.2371C8.09932 14.2371 8.17374 14.1912 8.18304 14.182C8.18304 13.8604 8.44351 13.6123 8.76909 13.6123C9.08537 13.6123 9.34584 13.8879 9.34584 14.2095C9.34584 14.8895 8.75979 15.3857 7.95979 15.3857C7.18769 15.3857 6.07141 14.8803 6.07141 13.4928C6.07141 13.1896 6.19234 12.6291 6.57373 12.1421C6.92722 11.6919 7.49467 11.3244 8.43421 11.3244C9.46677 11.3244 10.5365 11.94 10.9365 13.0518H15.0636C15.4636 11.9308 16.5334 11.3244 17.566 11.3244C18.4962 11.3244 19.0729 11.6919 19.4264 12.1421C19.8078 12.6291 19.9288 13.1896 19.9288 13.4928C19.9288 14.8803 18.8032 15.3857 18.0404 15.3857C17.2311 15.3857 16.6543 14.8895 16.6543 14.2095C16.6543 13.8879 16.9148 13.6123 17.2311 13.6123C17.5567 13.6123 17.8171 13.8512 17.8171 14.182C17.8264 14.1912 17.9008 14.2371 18.0497 14.2371C18.1799 14.2371 18.7753 14.2003 18.7753 13.502C18.7753 13.4653 18.7474 12.4821 17.5846 12.4821C16.7939 12.4821 16.0776 13.0794 16.0776 14.0258V14.2095C16.0776 15.4867 17.138 16.5158 18.4125 16.5158C19.6776 16.5158 21.3334 15.2203 21.3334 13.3458C21.2962 11.5816 19.8543 10.1666 18.0776 10.1666Z" fill="#F4F4F4"/>
<path d="M13.4262 18.1031H12.52V21.2778H13.4262V18.1031Z" fill="#F4F4F4"/>
<path d="M15.4858 18.1031H14.5796V21.2778H15.4858V18.1031Z" fill="#F4F4F4"/>
<path d="M11.3666 18.1031H10.4604V21.2778H11.3666V18.1031Z" fill="#F4F4F4"/>
<path d="M10.2456 22.0405C10.122 22.3374 9.98196 22.6095 9.82544 22.8651H16.3334C16.1769 22.6095 16.0368 22.3374 15.9133 22.0405H10.2456Z" fill="#F4F4F4"/>
<defs>
<filter id="filter0_f" x="4" y="32" width="18" height="9" filterUnits="userSpaceOnUse" color-interpolation-filters="sRGB">
<feFlood flood-opacity="0" result="BackgroundImageFix"/>
<feBlend mode="normal" in="SourceGraphic" in2="BackgroundImageFix" result="shape"/>
<feGaussianBlur stdDeviation="1" result="effect1_foregroundBlur"/>
</filter>
</defs>
</svg>
