<svg width="46" height="46" viewBox="0 0 46 46" fill="none" xmlns="http://www.w3.org/2000/svg">
<g filter="url(#filter0_d)">
<rect x="3" y="2" width="40" height="40" rx="6" fill="white"/>
</g>
<path d="M23 18C24.0609 18 25.0783 18.4214 25.8284 19.1716C26.5786 19.9217 27 20.9391 27 22C27 23.0609 26.5786 24.0783 25.8284 24.8284C25.0783 25.5786 24.0609 26 23 26C21.9391 26 20.9217 25.5786 20.1716 24.8284C19.4214 24.0783 19 23.0609 19 22C19 20.9391 19.4214 19.9217 20.1716 19.1716C20.9217 18.4214 21.9391 18 23 18ZM14.05 23H12V21H14.05C14.5 16.83 17.83 13.5 22 13.05V11H24V13.05C28.17 13.5 31.5 16.83 31.95 21H34V23H31.95C31.5 27.17 28.17 30.5 24 30.95V33H22V30.95C17.83 30.5 14.5 27.17 14.05 23ZM23 15C21.1435 15 19.363 15.7375 18.0503 17.0503C16.7375 18.363 16 20.1435 16 22C16 23.8565 16.7375 25.637 18.0503 26.9497C19.363 28.2625 21.1435 29 23 29C24.8565 29 26.637 28.2625 27.9497 26.9497C29.2625 25.637 30 23.8565 30 22C30 20.1435 29.2625 18.363 27.9497 17.0503C26.637 15.7375 24.8565 15 23 15Z" fill="#32434E"/>
<defs>
<filter id="filter0_d" x="0" y="0" width="46" height="46" filterUnits="userSpaceOnUse" color-interpolation-filters="sRGB">
<feFlood flood-opacity="0" result="BackgroundImageFix"/>
<feColorMatrix in="SourceAlpha" type="matrix" values="0 0 0 0 0 0 0 0 0 0 0 0 0 0 0 0 0 0 127 0"/>
<feOffset dy="1"/>
<feGaussianBlur stdDeviation="1.5"/>
<feColorMatrix type="matrix" values="0 0 0 0 0 0 0 0 0 0 0 0 0 0 0 0 0 0 0.2 0"/>
<feBlend mode="normal" in2="BackgroundImageFix" result="effect1_dropShadow"/>
<feBlend mode="normal" in="SourceGraphic" in2="effect1_dropShadow" result="shape"/>
</filter>
</defs>
</svg>
