<svg width="46" height="46" viewBox="0 0 46 46" fill="none" xmlns="http://www.w3.org/2000/svg">
<g filter="url(#filter0_d)">
<rect x="3" y="2" width="40" height="40" rx="6" fill="white"/>
</g>
<path d="M23.0023 25.85C21.9963 25.85 21.0315 25.4444 20.3202 24.7224C19.6089 24.0003 19.2092 23.0211 19.2092 22C19.2092 20.9789 19.6089 19.9997 20.3202 19.2776C21.0315 18.5556 21.9963 18.15 23.0023 18.15C24.0083 18.15 24.9731 18.5556 25.6844 19.2776C26.3958 19.9997 26.7954 20.9789 26.7954 22C26.7954 23.0211 26.3958 24.0003 25.6844 24.7224C24.9731 25.4444 24.0083 25.85 23.0023 25.85ZM31.0545 23.067C31.0978 22.715 31.1304 22.363 31.1304 22C31.1304 21.637 31.0978 21.274 31.0545 20.9L33.3412 19.107C33.5471 18.942 33.6013 18.645 33.4712 18.403L31.3038 14.597C31.1737 14.355 30.8811 14.256 30.6427 14.355L27.9442 15.455C27.3806 15.026 26.7954 14.652 26.1126 14.377L25.7117 11.462C25.6683 11.198 25.4407 11 25.1698 11H20.8348C20.5639 11 20.3363 11.198 20.293 11.462L19.892 14.377C19.2092 14.652 18.624 15.026 18.0605 15.455L15.3619 14.355C15.1235 14.256 14.8309 14.355 14.7009 14.597L12.5334 18.403C12.3925 18.645 12.4575 18.942 12.6634 19.107L14.9501 20.9C14.9068 21.274 14.8743 21.637 14.8743 22C14.8743 22.363 14.9068 22.715 14.9501 23.067L12.6634 24.893C12.4575 25.058 12.3925 25.355 12.5334 25.597L14.7009 29.403C14.8309 29.645 15.1235 29.733 15.3619 29.645L18.0605 28.534C18.624 28.974 19.2092 29.348 19.892 29.623L20.293 32.538C20.3363 32.802 20.5639 33 20.8348 33H25.1698C25.4407 33 25.6683 32.802 25.7117 32.538L26.1126 29.623C26.7954 29.337 27.3806 28.974 27.9442 28.534L30.6427 29.645C30.8811 29.733 31.1737 29.645 31.3038 29.403L33.4712 25.597C33.6013 25.355 33.5471 25.058 33.3412 24.893L31.0545 23.067Z" fill="#32434E"/>
<circle cx="22.9999" cy="22" r="5.91667" stroke="white"/>
<defs>
<filter id="filter0_d" x="0" y="0" width="46" height="46" filterUnits="userSpaceOnUse" color-interpolation-filters="sRGB">
<feFlood flood-opacity="0" result="BackgroundImageFix"/>
<feColorMatrix in="SourceAlpha" type="matrix" values="0 0 0 0 0 0 0 0 0 0 0 0 0 0 0 0 0 0 127 0"/>
<feOffset dy="1"/>
<feGaussianBlur stdDeviation="1.5"/>
<feColorMatrix type="matrix" values="0 0 0 0 0 0 0 0 0 0 0 0 0 0 0 0 0 0 0.2 0"/>
<feBlend mode="normal" in2="BackgroundImageFix" result="effect1_dropShadow"/>
<feBlend mode="normal" in="SourceGraphic" in2="effect1_dropShadow" result="shape"/>
</filter>
</defs>
</svg>
