<svg width="26" height="41" viewBox="0 0 26 41" fill="none" xmlns="http://www.w3.org/2000/svg">
<g filter="url(#filter0_f)">
<ellipse cx="13" cy="36.5" rx="7" ry="2.5" fill="black" fill-opacity="0.15"/>
</g>
<mask id="path-2-outside-1" maskUnits="userSpaceOnUse" x="0" y="2.63672" width="26" height="34" fill="black">
<rect fill="white" y="2.63672" width="26" height="34"/>
<path fill-rule="evenodd" clip-rule="evenodd" d="M20.0993 25.5334C23.0712 23.327 25 19.7705 25 15.7591C25 9.06407 19.6274 3.63672 13 3.63672C6.37258 3.63672 1 9.06407 1 15.7591C1 19.7706 2.92885 23.327 5.90076 25.5334C8.16058 27.2536 11.3467 29.9679 12.0759 34.3379C12.1523 34.7957 12.5359 35.1511 13 35.1511C13.4641 35.1511 13.8477 34.7957 13.9241 34.3379C14.6534 29.9678 17.8394 27.2536 20.0993 25.5334Z"/>
</mask>
<path fill-rule="evenodd" clip-rule="evenodd" d="M20.0993 25.5334C23.0712 23.327 25 19.7705 25 15.7591C25 9.06407 19.6274 3.63672 13 3.63672C6.37258 3.63672 1 9.06407 1 15.7591C1 19.7706 2.92885 23.327 5.90076 25.5334C8.16058 27.2536 11.3467 29.9679 12.0759 34.3379C12.1523 34.7957 12.5359 35.1511 13 35.1511C13.4641 35.1511 13.8477 34.7957 13.9241 34.3379C14.6534 29.9678 17.8394 27.2536 20.0993 25.5334Z" fill="#6C38A7"/>
<path d="M20.0993 25.5334L19.5031 24.7305L19.4936 24.7377L20.0993 25.5334ZM5.90076 25.5334L6.50649 24.7377L6.49687 24.7305L5.90076 25.5334ZM12.0759 34.3379L11.0895 34.5025L12.0759 34.3379ZM13.9241 34.3379L14.9105 34.5025L13.9241 34.3379ZM20.6954 26.3363C23.9124 23.9478 26 20.0979 26 15.7591H24C24 19.4432 22.2299 22.7061 19.5031 24.7305L20.6954 26.3363ZM26 15.7591C26 8.52137 20.1892 2.63672 13 2.63672V4.63672C19.0656 4.63672 24 9.60677 24 15.7591H26ZM13 2.63672C5.81076 2.63672 0 8.52137 0 15.7591H2C2 9.60677 6.93441 4.63672 13 4.63672V2.63672ZM0 15.7591C0 20.098 2.08756 23.9478 5.30465 26.3363L6.49687 24.7305C3.77015 22.7061 2 19.4432 2 15.7591H0ZM13.0622 34.1733C12.264 29.3899 8.78196 26.4698 6.50645 24.7377L5.29507 26.3291C7.53921 28.0374 10.4293 30.5458 11.0895 34.5025L13.0622 34.1733ZM13 34.1511C13.0128 34.1511 13.0263 34.1538 13.038 34.1584C13.0491 34.1627 13.0557 34.1677 13.0588 34.1705C13.0638 34.175 13.0627 34.1761 13.0622 34.1733L11.0895 34.5025C11.2386 35.396 12.0015 36.1511 13 36.1511V34.1511ZM12.9378 34.1733C12.9373 34.1761 12.9362 34.175 12.9412 34.1705C12.9443 34.1677 12.9509 34.1627 12.962 34.1584C12.9737 34.1538 12.9872 34.1511 13 34.1511V36.1511C13.9985 36.1511 14.7614 35.396 14.9105 34.5025L12.9378 34.1733ZM19.4936 24.7377C17.2181 26.4698 13.736 29.3899 12.9378 34.1733L14.9105 34.5025C15.5707 30.5458 18.4608 28.0374 20.7049 26.3291L19.4936 24.7377Z" fill="white" mask="url(#path-2-outside-1)"/>
<path d="M18 9.07837C16.6306 9.28425 15.4445 10.2156 14.9141 11.5392C15.2613 12.6274 15.7917 13.6176 15.9267 14.5195C16.052 15.3431 16.0231 16.196 15.8302 16.9705C15.6374 17.7843 15.2806 18.5195 14.7888 19.098C14.5091 19.4215 14.2005 19.7058 13.8438 19.9313C15.5602 19.6078 16.9778 17.9705 17.3442 16.2254C17.7396 14.4313 16.8717 13.745 16.8717 12.2744C16.8717 10.6078 17.296 10.5293 18 9.07837Z" fill="#F4F4F4"/>
<path d="M11.1436 17.9411C11.7029 17.9411 12.1561 17.4804 12.1561 16.9117C12.1561 16.3431 11.7029 15.8823 11.1436 15.8823C10.4396 15.8823 9.95748 16.6078 10.1986 17.2647C10.3432 17.6666 10.7289 17.9411 11.1436 17.9411Z" fill="#F4F4F4"/>
<path d="M9.96757 19.9902C10.7005 20.2156 12.0312 20.147 13.092 19.5784C13.5548 19.3529 13.9599 19.049 14.2877 18.647C15.1267 17.647 15.4931 16.147 15.2713 14.6176C15.1556 13.8235 14.6349 12.8431 14.2781 11.7549C14.2395 11.696 14.2106 11.6274 14.2106 11.549C13.9213 10.5784 13.6802 9.15682 14.5674 7.66663H14.307C12.8991 7.66663 11.6358 8.44114 10.9898 9.67643C10.2472 11.098 10.4304 12.8137 11.4912 14.3823C11.5394 14.4509 12.4652 15.8333 12.5134 15.9019C12.7255 16.196 12.8316 16.5392 12.8316 16.9019C12.8316 17.8431 12.0794 18.6176 11.144 18.6176C11.144 18.6176 10.4112 18.5588 9.91936 18.0784C9.79399 17.9509 9.69756 17.7941 9.62042 17.6274C9.47577 17.2843 9.44684 16.8333 9.62042 16.2156C10.1219 14.5294 8.19322 15.9019 8.09679 16.6862C7.98107 17.6372 7.59534 19.2647 9.96757 19.9902Z" fill="#F4F4F4"/>
<path d="M16.5246 20.5098H8.34716C8.15429 20.5098 8 20.6666 8 20.8627V21.8235C8 22.0196 8.15429 22.1764 8.34716 22.1764H16.5246C16.7175 22.1764 16.8717 22.0196 16.8717 21.8235V20.8627C16.8717 20.6666 16.7175 20.5098 16.5246 20.5098Z" fill="#F4F4F4"/>
<path d="M15.5989 22.6666H9.27294C9.09936 22.6666 8.96436 22.8039 8.96436 22.9804V24.0196C8.96436 24.196 9.09936 24.3333 9.27294 24.3333H15.5989C15.7725 24.3333 15.9075 24.196 15.9075 24.0196V22.9804C15.9075 22.8137 15.7725 22.6666 15.5989 22.6666Z" fill="#F4F4F4"/>
<defs>
<filter id="filter0_f" x="4" y="32" width="18" height="9" filterUnits="userSpaceOnUse" color-interpolation-filters="sRGB">
<feFlood flood-opacity="0" result="BackgroundImageFix"/>
<feBlend mode="normal" in="SourceGraphic" in2="BackgroundImageFix" result="shape"/>
<feGaussianBlur stdDeviation="1" result="effect1_foregroundBlur"/>
</filter>
</defs>
</svg>
