<?xml version="1.0" encoding="iso-8859-1"?>
<!-- Generator: Adobe Illustrator 19.0.0, SVG Export Plug-In . SVG Version: 6.00 Build 0)  -->
<svg xmlns="http://www.w3.org/2000/svg" xmlns:xlink="http://www.w3.org/1999/xlink" version="1.1" id="Layer_1" x="0px" y="0px" viewBox="0 0 312.405 312.405" style="enable-background:new 0 0 312.405 312.405;" xml:space="preserve" width="512" height="512">
<g>
	<g>
		<g>
			<g>
				<path style="fill:#29556E;" d="M21.203,255.311c-8.284,0-15-6.716-15-15v-41.774c0-8.284,6.716-15,15-15s15,6.716,15,15v41.774      C36.203,248.596,29.487,255.311,21.203,255.311z"/>
			</g>
			<path style="fill:#387F9E;" d="M291.203,255.311c-8.284,0-15-6.716-15-15v-41.774c0-8.284,6.716-15,15-15s15,6.716,15,15v41.774     C306.203,248.596,299.487,255.311,291.203,255.311z"/>
		</g>
	</g>
	<g>
		<g>
			<g>
				<path style="fill:#29556E;" d="M48.208,189.102c-8.284,0-15-6.716-15-15v-59.458c0-8.284,6.716-15,15-15s15,6.716,15,15v59.458      C63.208,182.387,56.492,189.102,48.208,189.102z"/>
			</g>
			<path style="fill:#387F9E;" d="M264.198,189.102c-8.284,0-15-6.716-15-15v-59.458c0-8.284,6.716-15,15-15s15,6.716,15,15v59.458     C279.198,182.387,272.482,189.102,264.198,189.102z"/>
		</g>
	</g>
	<path style="fill:#F79F4B;" d="M304.405,123.601H8c-4.418,0-8-3.582-8-8V65.094c0-4.418,3.582-8,8-8h296.405c4.418,0,8,3.582,8,8   v50.507C312.405,120.019,308.824,123.601,304.405,123.601z"/>
	<path style="fill:#CA8540;" d="M156.203,123.601H8c-4.418,0-8-3.582-8-8V65.094c0-4.418,3.582-8,8-8h148.203V123.601z"/>
	<path style="fill:#F79F4B;" d="M304.405,211.047H8c-4.418,0-8-3.582-8-8v-32.753c0-4.418,3.582-8,8-8h296.405c4.418,0,8,3.582,8,8   v32.753C312.405,207.465,308.824,211.047,304.405,211.047z"/>
	<path style="fill:#CA8540;" d="M156.203,211.047H8c-4.418,0-8-3.582-8-8v-32.753c0-4.418,3.582-8,8-8h148.203V211.047z"/>
</g>















</svg>
