<svg width="26" height="41" viewBox="0 0 26 41" fill="none" xmlns="http://www.w3.org/2000/svg">
<g filter="url(#filter0_f)">
<ellipse cx="13" cy="36.5" rx="7" ry="2.5" fill="black" fill-opacity="0.12"/>
</g>
<mask id="path-2-outside-1" maskUnits="userSpaceOnUse" x="0" y="2.63672" width="26" height="34" fill="black">
<rect fill="white" y="2.63672" width="26" height="34"/>
<path fill-rule="evenodd" clip-rule="evenodd" d="M20.0993 25.5334C23.0712 23.327 25 19.7705 25 15.7591C25 9.06407 19.6274 3.63672 13 3.63672C6.37258 3.63672 1 9.06407 1 15.7591C1 19.7706 2.92885 23.327 5.90076 25.5334C8.16058 27.2536 11.3467 29.9679 12.0759 34.3379C12.1523 34.7957 12.5359 35.1511 13 35.1511C13.4641 35.1511 13.8477 34.7957 13.9241 34.3379C14.6534 29.9678 17.8394 27.2536 20.0993 25.5334Z"/>
</mask>
<path fill-rule="evenodd" clip-rule="evenodd" d="M20.0993 25.5334C23.0712 23.327 25 19.7705 25 15.7591C25 9.06407 19.6274 3.63672 13 3.63672C6.37258 3.63672 1 9.06407 1 15.7591C1 19.7706 2.92885 23.327 5.90076 25.5334C8.16058 27.2536 11.3467 29.9679 12.0759 34.3379C12.1523 34.7957 12.5359 35.1511 13 35.1511C13.4641 35.1511 13.8477 34.7957 13.9241 34.3379C14.6534 29.9678 17.8394 27.2536 20.0993 25.5334Z" fill="#A73874"/>
<path d="M20.0993 25.5334L19.5031 24.7305L19.4936 24.7377L20.0993 25.5334ZM5.90076 25.5334L6.50649 24.7377L6.49687 24.7305L5.90076 25.5334ZM12.0759 34.3379L11.0895 34.5025L12.0759 34.3379ZM13.9241 34.3379L14.9105 34.5025L13.9241 34.3379ZM20.6954 26.3363C23.9124 23.9478 26 20.0979 26 15.7591H24C24 19.4432 22.2299 22.7061 19.5031 24.7305L20.6954 26.3363ZM26 15.7591C26 8.52137 20.1892 2.63672 13 2.63672V4.63672C19.0656 4.63672 24 9.60677 24 15.7591H26ZM13 2.63672C5.81076 2.63672 0 8.52137 0 15.7591H2C2 9.60677 6.93441 4.63672 13 4.63672V2.63672ZM0 15.7591C0 20.098 2.08756 23.9478 5.30465 26.3363L6.49687 24.7305C3.77015 22.7061 2 19.4432 2 15.7591H0ZM13.0622 34.1733C12.264 29.3899 8.78196 26.4698 6.50645 24.7377L5.29507 26.3291C7.53921 28.0374 10.4293 30.5458 11.0895 34.5025L13.0622 34.1733ZM13 34.1511C13.0128 34.1511 13.0263 34.1538 13.038 34.1584C13.0491 34.1627 13.0557 34.1677 13.0588 34.1705C13.0638 34.175 13.0627 34.1761 13.0622 34.1733L11.0895 34.5025C11.2386 35.396 12.0015 36.1511 13 36.1511V34.1511ZM12.9378 34.1733C12.9373 34.1761 12.9362 34.175 12.9412 34.1705C12.9443 34.1677 12.9509 34.1627 12.962 34.1584C12.9737 34.1538 12.9872 34.1511 13 34.1511V36.1511C13.9985 36.1511 14.7614 35.396 14.9105 34.5025L12.9378 34.1733ZM19.4936 24.7377C17.2181 26.4698 13.736 29.3899 12.9378 34.1733L14.9105 34.5025C15.5707 30.5458 18.4608 28.0374 20.7049 26.3291L19.4936 24.7377Z" fill="white" mask="url(#path-2-outside-1)"/>
<path d="M19.8007 15.0911H7.03248C6.91394 15.0911 6.8208 14.9985 6.8208 14.8807V14.3756C6.8208 14.2578 6.91394 14.1652 7.03248 14.1652H19.8007C19.9193 14.1652 20.0124 14.2578 20.0124 14.3756V14.8807C20.0124 14.9985 19.9193 15.0911 19.8007 15.0911Z" fill="#F4F4F4"/>
<path d="M21.2402 17.2123H5.59314C5.54234 17.2123 5.5 17.1702 5.5 17.1197C5.5 16.3789 6.10116 15.7812 6.84626 15.7812H20.0717C20.766 15.7812 21.3333 16.3452 21.3333 17.0355V17.1281C21.3333 17.1702 21.291 17.2123 21.2402 17.2123Z" fill="#F4F4F4"/>
<path d="M19.8007 13.5085H7.03248C6.91394 13.5085 6.8208 13.4159 6.8208 13.298V12.793C6.8208 12.6751 6.91394 12.5825 7.03248 12.5825H19.8007C19.9193 12.5825 20.0124 12.6751 20.0124 12.793V13.298C20.0124 13.4159 19.9193 13.5085 19.8007 13.5085Z" fill="#F4F4F4"/>
<path d="M19.8854 11.926H6.94781C6.88007 11.926 6.8208 11.867 6.8208 11.7997C6.8208 11.362 7.17642 11 7.62517 11H19.3435C19.7161 11 20.0209 11.303 20.0209 11.6734V11.7997C20.0124 11.867 19.9532 11.926 19.8854 11.926Z" fill="#F4F4F4"/>
<path d="M7.37961 20.613H6.87159C6.75305 20.613 6.65991 20.5205 6.65991 20.4026V17.2039C6.65991 17.086 6.75305 16.9934 6.87159 16.9934H7.37961C7.49815 16.9934 7.59129 17.086 7.59129 17.2039V20.4026C7.59129 20.5205 7.49815 20.613 7.37961 20.613Z" fill="#F4F4F4"/>
<path d="M19.9616 20.613H19.4536C19.3351 20.613 19.2419 20.5205 19.2419 20.4026V17.2039C19.2419 17.086 19.3351 16.9934 19.4536 16.9934H19.9616C20.0802 16.9934 20.1733 17.086 20.1733 17.2039V20.4026C20.1733 20.5205 20.0802 20.613 19.9616 20.613Z" fill="#F4F4F4"/>
<path d="M17.5061 19.6871H16.9981C16.8795 19.6871 16.7864 19.5946 16.7864 19.4767V16.2779C16.7864 16.1601 16.8795 16.0675 16.9981 16.0675H17.5061C17.6246 16.0675 17.7177 16.1601 17.7177 16.2779V19.4767C17.7177 19.5946 17.6246 19.6871 17.5061 19.6871Z" fill="#F4F4F4"/>
<path d="M9.80124 19.6871H9.29322C9.17468 19.6871 9.08154 19.5946 9.08154 19.4767V16.2779C9.08154 16.1601 9.17468 16.0675 9.29322 16.0675H9.80124C9.91978 16.0675 10.0129 16.1601 10.0129 16.2779V19.4767C10.0129 19.5946 9.91978 19.6871 9.80124 19.6871Z" fill="#F4F4F4"/>
<defs>
<filter id="filter0_f" x="4" y="32" width="18" height="9" filterUnits="userSpaceOnUse" color-interpolation-filters="sRGB">
<feFlood flood-opacity="0" result="BackgroundImageFix"/>
<feBlend mode="normal" in="SourceGraphic" in2="BackgroundImageFix" result="shape"/>
<feGaussianBlur stdDeviation="1" result="effect1_foregroundBlur"/>
</filter>
</defs>
</svg>
