<svg width="26" height="41" viewBox="0 0 26 41" fill="none" xmlns="http://www.w3.org/2000/svg">
<g filter="url(#filter0_f)">
<ellipse cx="13" cy="36.5" rx="7" ry="2.5" fill="black" fill-opacity="0.12"/>
</g>
<mask id="path-2-outside-1" maskUnits="userSpaceOnUse" x="0" y="2.63672" width="26" height="34" fill="black">
<rect fill="white" y="2.63672" width="26" height="34"/>
<path fill-rule="evenodd" clip-rule="evenodd" d="M20.0993 25.5334C23.0712 23.327 25 19.7705 25 15.7591C25 9.06407 19.6274 3.63672 13 3.63672C6.37258 3.63672 1 9.06407 1 15.7591C1 19.7706 2.92885 23.327 5.90076 25.5334C8.16058 27.2536 11.3467 29.9679 12.0759 34.3379C12.1523 34.7957 12.5359 35.1511 13 35.1511C13.4641 35.1511 13.8477 34.7957 13.9241 34.3379C14.6534 29.9678 17.8394 27.2536 20.0993 25.5334Z"/>
</mask>
<path fill-rule="evenodd" clip-rule="evenodd" d="M20.0993 25.5334C23.0712 23.327 25 19.7705 25 15.7591C25 9.06407 19.6274 3.63672 13 3.63672C6.37258 3.63672 1 9.06407 1 15.7591C1 19.7706 2.92885 23.327 5.90076 25.5334C8.16058 27.2536 11.3467 29.9679 12.0759 34.3379C12.1523 34.7957 12.5359 35.1511 13 35.1511C13.4641 35.1511 13.8477 34.7957 13.9241 34.3379C14.6534 29.9678 17.8394 27.2536 20.0993 25.5334Z" fill="#A75938"/>
<path d="M20.0993 25.5334L19.5031 24.7305L19.4936 24.7377L20.0993 25.5334ZM5.90076 25.5334L6.50649 24.7377L6.49687 24.7305L5.90076 25.5334ZM12.0759 34.3379L11.0895 34.5025L12.0759 34.3379ZM13.9241 34.3379L14.9105 34.5025L13.9241 34.3379ZM20.6954 26.3363C23.9124 23.9478 26 20.0979 26 15.7591H24C24 19.4432 22.2299 22.7061 19.5031 24.7305L20.6954 26.3363ZM26 15.7591C26 8.52137 20.1892 2.63672 13 2.63672V4.63672C19.0656 4.63672 24 9.60677 24 15.7591H26ZM13 2.63672C5.81076 2.63672 0 8.52137 0 15.7591H2C2 9.60677 6.93441 4.63672 13 4.63672V2.63672ZM0 15.7591C0 20.098 2.08756 23.9478 5.30465 26.3363L6.49687 24.7305C3.77015 22.7061 2 19.4432 2 15.7591H0ZM13.0622 34.1733C12.264 29.3899 8.78196 26.4698 6.50645 24.7377L5.29507 26.3291C7.53921 28.0374 10.4293 30.5458 11.0895 34.5025L13.0622 34.1733ZM13 34.1511C13.0128 34.1511 13.0263 34.1538 13.038 34.1584C13.0491 34.1627 13.0557 34.1677 13.0588 34.1705C13.0638 34.175 13.0627 34.1761 13.0622 34.1733L11.0895 34.5025C11.2386 35.396 12.0015 36.1511 13 36.1511V34.1511ZM12.9378 34.1733C12.9373 34.1761 12.9362 34.175 12.9412 34.1705C12.9443 34.1677 12.9509 34.1627 12.962 34.1584C12.9737 34.1538 12.9872 34.1511 13 34.1511V36.1511C13.9985 36.1511 14.7614 35.396 14.9105 34.5025L12.9378 34.1733ZM19.4936 24.7377C17.2181 26.4698 13.736 29.3899 12.9378 34.1733L14.9105 34.5025C15.5707 30.5458 18.4608 28.0374 20.7049 26.3291L19.4936 24.7377Z" fill="white" mask="url(#path-2-outside-1)"/>
<path d="M11.319 14.3334C11.319 15.1732 11.0014 15.9351 10.5 16.5065H16.3333C15.8319 15.9264 15.5143 15.1732 15.5143 14.3334H11.319Z" fill="#F4F4F4"/>
<path d="M18.7481 9.33337H8.03653C6.17094 9.33337 4.66675 10.8191 4.66675 12.6619C4.66675 14.6397 6.40536 16 7.73374 16C9.07188 16 10.1854 14.9195 10.1854 13.5784V13.3855C10.1854 12.3917 9.43328 11.7646 8.60304 11.7646C7.37234 11.7646 7.35281 12.797 7.35281 12.8355C7.35281 13.5784 7.97792 13.6074 8.11467 13.6074C8.27095 13.6074 8.34909 13.5591 8.35886 13.5495C8.35886 13.2118 8.63235 12.9513 8.97421 12.9513C9.3063 12.9513 9.57979 13.2408 9.57979 13.5784C9.57979 14.2924 8.96444 14.8134 8.12444 14.8134C7.31374 14.8134 6.14164 14.2827 6.14164 12.8259C6.14164 12.5075 6.26862 11.919 6.66908 11.4077C7.04025 10.9349 7.63606 10.549 8.62258 10.549C9.70677 10.549 10.83 11.1954 11.25 12.3628H15.5835C16.0035 11.1858 17.1267 10.549 18.2109 10.549C19.1877 10.549 19.7933 10.9349 20.1644 11.4077C20.5649 11.919 20.6919 12.5075 20.6919 12.8259C20.6919 14.2827 19.51 14.8134 18.7091 14.8134C17.8593 14.8134 17.2537 14.2924 17.2537 13.5784C17.2537 13.2408 17.5272 12.9513 17.8593 12.9513C18.2011 12.9513 18.4746 13.2022 18.4746 13.5495C18.4844 13.5591 18.5625 13.6074 18.7188 13.6074C18.8556 13.6074 19.4807 13.5688 19.4807 12.8355C19.4807 12.797 19.4514 11.7646 18.2305 11.7646C17.4002 11.7646 16.6481 12.3917 16.6481 13.3855V13.5784C16.6481 14.9195 17.7616 16 19.0998 16C20.4281 16 22.1667 14.6397 22.1667 12.6715C22.1277 10.8191 20.6137 9.33337 18.7481 9.33337Z" fill="#F4F4F4"/>
<path d="M13.8638 17.6667H12.9124V21.0001H13.8638V17.6667Z" fill="#F4F4F4"/>
<path d="M16.0264 17.6667H15.075V21.0001H16.0264V17.6667Z" fill="#F4F4F4"/>
<path d="M11.7015 17.6667H10.75V21.0001H11.7015V17.6667Z" fill="#F4F4F4"/>
<path d="M10.5246 21.8009C10.3949 22.1126 10.2478 22.3983 10.0835 22.6667H16.9169C16.7525 22.3983 16.6055 22.1126 16.4757 21.8009H10.5246Z" fill="#F4F4F4"/>
<defs>
<filter id="filter0_f" x="4" y="32" width="18" height="9" filterUnits="userSpaceOnUse" color-interpolation-filters="sRGB">
<feFlood flood-opacity="0" result="BackgroundImageFix"/>
<feBlend mode="normal" in="SourceGraphic" in2="BackgroundImageFix" result="shape"/>
<feGaussianBlur stdDeviation="1" result="effect1_foregroundBlur"/>
</filter>
</defs>
</svg>
