<svg height="512pt" viewBox="-17 0 512 512.001" width="512pt" xmlns="http://www.w3.org/2000/svg"><path d="m396.347656 213.96875h-314.554687l-19.996094-169.417969h354.546875zm0 0" fill="#f8b53c"/><path d="m393.347656 44.550781-19.996094 169.417969h22.996094l19.996094-169.417969zm0 0" fill="#f8a814"/><path d="m454.570312 44.550781c.003907-.277343.019532-.550781.019532-.828125 0-19.921875-16.300782-36.222656-36.222656-36.222656h-358.59375c-19.925782 0-36.226563 16.300781-36.226563 36.222656 0 .277344.015625.550782.023437.828125zm0 0" fill="#f9cd45"/><path d="m418.367188 7.5h-22.996094c19.925781 0 36.226562 16.300781 36.226562 36.222656 0 .277344-.015625.550782-.023437.828125h22.996093c.007813-.277343.023438-.550781.023438-.828125-.003906-19.921875-16.304688-36.222656-36.226562-36.222656zm0 0" fill="#f8b53c"/><path d="m23.65625 104.386719c1.371094 36.710937 17.085938 65.921875 36.117188 65.921875h358.59375c19.027343 0 34.742187-29.210938 36.113281-65.921875zm0 0" fill="#f9cd45"/><path d="m431.488281 104.386719c-1.371093 36.710937-17.085937 65.921875-36.117187 65.921875h22.996094c19.03125 0 34.746093-29.210938 36.117187-65.921875zm0 0" fill="#f8b53c"/><path d="m103.316406 266.957031h271.507813v237.320313h-271.507813zm0 0" fill="#f9cd45"/><path d="m103.316406 213.96875h271.507813v52.691406h-271.507813zm0 0" fill="#f8a814"/><g fill="#f8b53c"><path d="m351.828125 266.957031h22.996094v237.320313h-22.996094zm0 0"/><path d="m183.792969 504.5v-177.832031c0-11.269531-9.222657-20.488281-20.492188-20.488281s-20.492187 9.21875-20.492187 20.488281v177.835937h40.984375zm0 0"/><path d="m259.5625 504.5v-177.832031c0-11.269531-9.222656-20.488281-20.492188-20.488281-11.269531 0-20.492187 9.21875-20.492187 20.488281v177.835937h40.984375zm0 0"/><path d="m335.328125 504.5v-177.832031c0-11.269531-9.21875-20.488281-20.492187-20.488281-11.269532 0-20.488282 9.21875-20.488282 20.488281v177.835937h40.980469zm0 0"/><path d="m116.636719 174.574219c28.175781 28.179687 36.738281 65.304687 19.117187 82.925781-17.617187 17.617188-54.742187 9.058594-82.921875-19.121094-42.921875-42.921875-45.332031-109.136718-45.332031-109.136718s66.9375 3.132812 109.136719 45.332031zm0 0"/><path d="m181.40625 191.292969c16.960938 29.140625 15.9375 61.363281-2.285156 71.964843-18.222656 10.605469-46.742188-4.425781-63.703125-33.566406-25.832031-44.390625-13.488281-99.078125-13.488281-99.078125s54.078124 17.035157 79.476562 60.679688zm0 0"/><path d="m361.503906 174.574219c-28.179687 28.179687-36.738281 65.304687-19.121094 82.925781 17.621094 17.617188 54.746094 9.058594 82.921876-19.121094 42.925781-42.921875 45.335937-109.136718 45.335937-109.136718s-66.9375 3.132812-109.136719 45.332031zm0 0"/><path d="m296.730469 191.292969c-16.957031 29.140625-15.933594 61.363281 2.289062 71.964843 18.222657 10.605469 46.742188-4.425781 63.699219-33.566406 25.832031-44.390625 13.492188-99.078125 13.492188-99.078125s-54.082032 17.035157-79.480469 60.679688zm0 0"/><path d="m315.722656 205.96875c0 42.335938-34.320312 76.652344-76.652344 76.652344-42.335937 0-76.652343-34.316406-76.652343-76.652344 0-42.332031 34.316406-76.652344 76.652343-76.652344 42.332032 0 76.652344 34.320313 76.652344 76.652344zm0 0"/></g><path d="m239.070312 129.316406c-3.910156 0-7.746093.296875-11.5.859375 36.878907 5.550781 65.15625 37.367188 65.15625 75.792969s-28.277343 70.246094-65.15625 75.792969c3.753907.5625 7.589844.859375 11.5.859375 42.332032 0 76.652344-34.316406 76.652344-76.652344 0-42.332031-34.320312-76.652344-76.652344-76.652344zm0 0" fill="#f8a814"/><path d="m274.730469 205.96875c0 19.695312-15.964844 35.660156-35.660157 35.660156-19.695312 0-35.660156-15.964844-35.660156-35.660156s15.964844-35.660156 35.660156-35.660156c19.695313 0 35.660157 15.964844 35.660157 35.660156zm0 0" fill="#f9cd45"/><path d="m239.070312 170.308594c-4.023437 0-7.890624.679687-11.5 1.90625 14.050782 4.785156 24.164063 18.085937 24.164063 33.753906 0 15.671875-10.109375 28.96875-24.164063 33.757812 3.609376 1.226563 7.476563 1.902344 11.5 1.902344 19.695313 0 35.660157-15.964844 35.660157-35.660156 0-19.691406-15.964844-35.660156-35.660157-35.660156zm0 0" fill="#f8b53c"/><path d="m478.132812 129.515625c.078126-2.085937-.71875-4.109375-2.195312-5.582031s-3.496094-2.265625-5.585938-2.183594c-.550781.019531-4.367187.191406-10.453124.953125 1.023437-5.160156 1.816406-11.015625 2.078124-18.035156.074219-2.035157-.679687-4.015625-2.09375-5.480469-1.414062-1.46875-3.363281-2.296875-5.398437-2.296875h-36.769531l5.292968-44.84375h31.5625c4.078126 0 7.410157-3.261719 7.496094-7.339844l.007813-.210937c.007812-.257813.015625-.515625.015625-.773438 0-24.109375-19.613282-43.722656-43.722656-43.722656h-358.59375c-24.109376 0-43.722657 19.613281-43.722657 43.722656 0 .261719.003907.523438.015625.78125l.007813.21875c.09375 4.074219 3.421875 7.324219 7.496093 7.324219h31.5625l5.292969 44.84375h-36.769531c-2.039062 0-3.988281.828125-5.398438 2.296875-1.414062 1.464844-2.171874 3.445312-2.09375 5.480469.230469 6.160156.847657 12.183593 1.832032 18.003906-5.941406-.734375-9.664063-.902344-10.207032-.921875-2.082031-.082031-4.109374.710938-5.585937 2.183594s-2.2734375 3.496094-2.19921875 5.582031c.10546875 2.824219 3.03124975 69.671875 47.52734375 114.167969 14.394531 14.394531 31.511719 24.5 48.285156 28.546875v77.929687c0 4.140625 3.359375 7.5 7.5 7.5s7.5-3.359375 7.5-7.5v-75.996094c.140625.003907.285156.015626.421875.015626 10.664063 0 19.976563-3.058594 27.1875-9 1.605469 1.023437 3.230469 1.96875 4.875 2.835937 7.796875 4.109375 15.496094 6.171875 22.683594 6.171875 6.085937 0 11.804687-1.480469 16.90625-4.445312.273437-.160157.523437-.335938.769531-.519532 14.8125 12.992188 34.203125 20.898438 55.410156 20.898438 21.210938 0 40.597657-7.902344 55.410157-20.898438.242187.183594.496093.359375.769531.519532h.003906c5.101563 2.96875 10.816406 4.445312 16.898438 4.445312 7.1875 0 14.886718-2.0625 22.6875-6.171875 1.640625-.867187 3.265625-1.8125 4.871094-2.835937 7.210937 5.941406 16.523437 9 27.1875 9 .140624 0 .285156-.011719.425781-.015626v222.613282h-24.496094v-36.660156c0-4.140626-3.359375-7.5-7.5-7.5s-7.5 3.359374-7.5 7.5v36.660156h-25.984375v-170.109375c0-7.164063 5.828125-12.992188 12.992188-12.992188 7.164062 0 12.992187 5.828125 12.992187 12.992188v107.382812c0 4.140625 3.359375 7.496094 7.5 7.496094s7.5-3.355469 7.5-7.496094v-107.382812c0-15.433594-12.558594-27.988281-27.992187-27.988281-15.429688 0-27.988282 12.554687-27.988282 27.988281v170.109375h-19.789062v-170.109375c0-15.433594-12.558594-27.988281-27.988282-27.988281-15.433593 0-27.992187 12.554687-27.992187 27.988281v170.109375h-19.785156v-170.109375c0-15.433594-12.558594-27.988281-27.992188-27.988281-15.433593 0-27.988281 12.554687-27.988281 27.988281v170.109375h-24.496094v-119.558594c0-4.140625-3.359375-7.5-7.5-7.5s-7.5 3.359375-7.5 7.5v127.058594c0 4.140625 3.359375 7.496094 7.5 7.496094h37.695313c.578125.144531 1.175781.226562 1.796875.226562h40.984375c.621093 0 1.21875-.082031 1.796875-.226562h31.191406c.578125.144531 1.175781.226562 1.796875.226562h40.980469c.621094 0 1.222656-.082031 1.796875-.226562h31.195312c.574219.144531 1.175781.226562 1.796875.226562h40.980469c.621094 0 1.21875-.082031 1.796875-.226562h37.695312c4.144532 0 7.5-3.355469 7.5-7.496094v-232.046875c16.777344-4.046875 33.894532-14.15625 48.289063-28.550781 44.496094-44.492188 47.421875-111.339844 47.523437-114.164063zm-252.054687 197.152344c0-7.164063 5.828125-12.992188 12.992187-12.992188 7.164063 0 12.992188 5.828125 12.992188 12.992188v170.109375h-25.984375zm-75.769531 0c0-7.164063 5.828125-12.992188 12.992187-12.992188 7.164063 0 12.992188 5.828125 12.992188 12.992188v170.109375h-25.984375zm-90.535156-311.671875h358.59375c13.542968 0 24.929687 9.421875 27.945312 22.054687h-414.484375c3.019531-12.632812 14.402344-22.054687 27.945313-22.054687zm10.460937 37.050781h337.671875l-5.292969 44.84375h-327.085937zm-38.5625 59.839844h414.746094c-.542969 4.867187-1.40625 9.15625-2.496094 13.480469-16.046875 3.320312-37.324219 9.652343-57.851563 21.679687-.878906-10.46875-2.367187-17.292969-2.546874-18.082031-.460938-2.046875-1.757813-3.804688-3.574219-4.851563-1.816407-1.046875-3.992188-1.28125-5.992188-.652343-1.550781.488281-35.742187 11.496093-63.320312 38.304687-14.851563-23.953125-41.371094-39.945313-71.566407-39.945313-30.195312 0-56.714843 15.992188-71.566406 39.945313-27.578125-26.808594-61.769531-37.816406-63.320312-38.304687-2-.628907-4.171875-.394532-5.992188.652343-1.816406 1.042969-3.113281 2.804688-3.578125 4.851563-.175781.789062-1.664062 7.613281-2.542969 18.082031-20.714843-12.136719-42.195312-18.472656-58.296874-21.769531-.9375-4.320313-1.648438-8.789063-2.101563-13.390625zm26.464844 121.191406c-31.410157-31.410156-40.054688-76.8125-42.351563-95.539063 15.058594 1.867188 47.324219 7.910157 75.664063 26.800782.15625 13.359375 1.835937 29.203125 6.941406 45.1875l-36.101563-36.097656c-2.929687-2.929688-7.675781-2.929688-10.605468 0-2.925782 2.925781-2.925782 7.675781 0 10.601562l72.511718 72.511719c-16.34375 7.621093-44.386718-1.792969-66.058593-23.464844zm92.15625 21.667969c-10.804688-5.691406-20.886719-15.929688-28.390625-28.828125-18.148438-31.183594-16.148438-68.496094-14.046875-85.035157 11.941406 4.992188 34.667969 16.199219 52.613281 35.085938-3.574219 9.324219-5.550781 19.433594-5.550781 30 0 .277344.019531.550781.023437.828125l-16.746094-28.773437c-2.082031-3.578126-6.675781-4.792969-10.253906-2.707032-3.578125 2.082032-4.792968 6.671875-2.707031 10.25l42.765625 73.492188c-5.253906.5-11.308594-.941406-17.707031-4.3125zm88.777343 20.378906c-38.132812 0-69.15625-31.023438-69.15625-69.15625s31.023438-69.152344 69.15625-69.152344c38.132813 0 69.152344 31.019532 69.152344 69.152344s-31.019531 69.15625-69.152344 69.15625zm88.777344-20.378906c-6.398437 3.371094-12.457031 4.8125-17.710937 4.3125l42.769531-73.492188c2.082031-3.578125.871094-8.167968-2.710938-10.253906-3.582031-2.082031-8.167968-.867188-10.253906 2.710938l-16.742187 28.773437c0-.277344.019531-.550781.019531-.828125 0-10.566406-1.976562-20.675781-5.546875-30 17.949219-18.894531 40.6875-30.101562 52.625-35.09375 2.121094 16.511719 4.148437 53.753906-14.058594 85.046875-7.503906 12.894531-17.585937 23.132813-28.390625 28.824219zm26.097656 1.796875 72.511719-72.507813c2.925781-2.929687 2.925781-7.675781 0-10.605468-2.929687-2.929688-7.675781-2.929688-10.605469 0l-36.101562 36.097656c5.105469-15.980469 6.785156-31.824219 6.941406-45.179688 28.269532-18.839844 60.601563-24.910156 75.671875-26.796875-2.269531 18.714844-10.867187 64.035157-42.359375 95.527344-21.671875 21.671875-49.71875 31.085937-66.058594 23.464844zm0 0" fill="#18191b"/><path d="m239.070312 162.8125c-23.796874 0-43.160156 19.359375-43.160156 43.15625 0 23.800781 19.363282 43.160156 43.160156 43.160156 23.796876 0 43.15625-19.359375 43.15625-43.160156 0-23.796875-19.359374-43.15625-43.15625-43.15625zm0 71.320312c-15.527343 0-28.164062-12.632812-28.164062-28.164062 0-15.527344 12.636719-28.160156 28.164062-28.160156 15.527344 0 28.160157 12.632812 28.160157 28.160156s-12.632813 28.164062-28.160157 28.164062zm0 0" fill="#18191b"/></svg>