<svg width="26" height="41" viewBox="0 0 26 41" fill="none" xmlns="http://www.w3.org/2000/svg">
<g filter="url(#filter0_f)">
<ellipse cx="13" cy="36.5" rx="7" ry="2.5" fill="black" fill-opacity="0.12"/>
</g>
<mask id="path-2-outside-1" maskUnits="userSpaceOnUse" x="0" y="2.63672" width="26" height="34" fill="black">
<rect fill="white" y="2.63672" width="26" height="34"/>
<path fill-rule="evenodd" clip-rule="evenodd" d="M20.0993 25.5334C23.0712 23.327 25 19.7705 25 15.7591C25 9.06407 19.6274 3.63672 13 3.63672C6.37258 3.63672 1 9.06407 1 15.7591C1 19.7706 2.92885 23.327 5.90076 25.5334C8.16058 27.2536 11.3467 29.9679 12.0759 34.3379C12.1523 34.7957 12.5359 35.1511 13 35.1511C13.4641 35.1511 13.8477 34.7957 13.9241 34.3379C14.6534 29.9678 17.8394 27.2536 20.0993 25.5334Z"/>
</mask>
<path fill-rule="evenodd" clip-rule="evenodd" d="M20.0993 25.5334C23.0712 23.327 25 19.7705 25 15.7591C25 9.06407 19.6274 3.63672 13 3.63672C6.37258 3.63672 1 9.06407 1 15.7591C1 19.7706 2.92885 23.327 5.90076 25.5334C8.16058 27.2536 11.3467 29.9679 12.0759 34.3379C12.1523 34.7957 12.5359 35.1511 13 35.1511C13.4641 35.1511 13.8477 34.7957 13.9241 34.3379C14.6534 29.9678 17.8394 27.2536 20.0993 25.5334Z" fill="#3873A7"/>
<path d="M20.0993 25.5334L19.5031 24.7305L19.4936 24.7377L20.0993 25.5334ZM5.90076 25.5334L6.50649 24.7377L6.49687 24.7305L5.90076 25.5334ZM12.0759 34.3379L11.0895 34.5025L12.0759 34.3379ZM13.9241 34.3379L14.9105 34.5025L13.9241 34.3379ZM20.6954 26.3363C23.9124 23.9478 26 20.0979 26 15.7591H24C24 19.4432 22.2299 22.7061 19.5031 24.7305L20.6954 26.3363ZM26 15.7591C26 8.52137 20.1892 2.63672 13 2.63672V4.63672C19.0656 4.63672 24 9.60677 24 15.7591H26ZM13 2.63672C5.81076 2.63672 0 8.52137 0 15.7591H2C2 9.60677 6.93441 4.63672 13 4.63672V2.63672ZM0 15.7591C0 20.098 2.08756 23.9478 5.30465 26.3363L6.49687 24.7305C3.77015 22.7061 2 19.4432 2 15.7591H0ZM13.0622 34.1733C12.264 29.3899 8.78196 26.4698 6.50645 24.7377L5.29507 26.3291C7.53921 28.0374 10.4293 30.5458 11.0895 34.5025L13.0622 34.1733ZM13 34.1511C13.0128 34.1511 13.0263 34.1538 13.038 34.1584C13.0491 34.1627 13.0557 34.1677 13.0588 34.1705C13.0638 34.175 13.0627 34.1761 13.0622 34.1733L11.0895 34.5025C11.2386 35.396 12.0015 36.1511 13 36.1511V34.1511ZM12.9378 34.1733C12.9373 34.1761 12.9362 34.175 12.9412 34.1705C12.9443 34.1677 12.9509 34.1627 12.962 34.1584C12.9737 34.1538 12.9872 34.1511 13 34.1511V36.1511C13.9985 36.1511 14.7614 35.396 14.9105 34.5025L12.9378 34.1733ZM19.4936 24.7377C17.2181 26.4698 13.736 29.3899 12.9378 34.1733L14.9105 34.5025C15.5707 30.5458 18.4608 28.0374 20.7049 26.3291L19.4936 24.7377Z" fill="white" mask="url(#path-2-outside-1)"/>
<path d="M14.7705 10.5116L7.08077 15.9279C6.8922 16.0641 6.83982 16.3051 6.95506 16.5041L6.96553 16.5355L5.71884 17.2584C5.50931 17.3841 5.43598 17.646 5.56169 17.8556L6.50457 19.4899C6.63029 19.6994 6.8922 19.7727 7.10173 19.647L8.34842 18.9242L8.3589 18.9556C8.47414 19.1546 8.71509 19.228 8.92462 19.1337L11.4494 17.9708C11.5752 18.1489 11.7218 18.3165 11.8999 18.4422L10.2237 22.9157C10.1399 23.1461 10.2551 23.3976 10.4856 23.4814C10.7161 23.5652 10.9675 23.45 11.0513 23.2195L12.7171 18.7775C12.8114 18.788 12.9057 18.7984 12.9999 18.7984C13.0942 18.7984 13.1885 18.788 13.2828 18.7775L14.9486 23.2195C15.0324 23.45 15.2838 23.5652 15.5143 23.4814C15.7448 23.3976 15.86 23.1461 15.7762 22.9157L14.0895 18.4318C14.5505 18.0965 14.8438 17.5517 14.8438 16.9336C14.8438 16.7555 14.8228 16.5879 14.7705 16.4203L17.4629 15.1736L14.7705 10.5116ZM13.0419 17.9498C12.4657 17.9498 11.9942 17.4784 11.9942 16.9022C11.9942 16.326 12.4657 15.8546 13.0419 15.8546C13.6181 15.8546 14.0895 16.326 14.0895 16.9022C14.0895 17.4784 13.6181 17.9498 13.0419 17.9498Z" fill="#F4F4F4"/>
<path d="M20.4381 13.6127L17.6095 8.72018C17.4838 8.51066 17.2219 8.43732 17.0123 8.56304L15.378 9.50591C15.1685 9.63163 15.0952 9.89354 15.2209 10.1031L15.2523 10.1659L18.0076 14.9327L18.039 14.9956C18.1647 15.2051 18.4267 15.2784 18.6362 15.1527L20.2705 14.2098C20.4905 14.0946 20.5639 13.8222 20.4381 13.6127Z" fill="#F4F4F4"/>
<path d="M13.0419 16.1688C12.6334 16.1688 12.3086 16.4936 12.3086 16.9022C12.3086 17.3108 12.6334 17.6355 13.0419 17.6355C13.4505 17.6355 13.7753 17.3108 13.7753 16.9022C13.7753 16.4936 13.44 16.1688 13.0419 16.1688Z" fill="#F4F4F4"/>
<defs>
<filter id="filter0_f" x="4" y="32" width="18" height="9" filterUnits="userSpaceOnUse" color-interpolation-filters="sRGB">
<feFlood flood-opacity="0" result="BackgroundImageFix"/>
<feBlend mode="normal" in="SourceGraphic" in2="BackgroundImageFix" result="shape"/>
<feGaussianBlur stdDeviation="1" result="effect1_foregroundBlur"/>
</filter>
</defs>
</svg>
