<svg width="26" height="41" viewBox="0 0 26 41" fill="none" xmlns="http://www.w3.org/2000/svg">
<g filter="url(#filter0_f)">
<ellipse cx="13" cy="36.5" rx="7" ry="2.5" fill="black" fill-opacity="0.15"/>
</g>
<mask id="path-2-outside-1" maskUnits="userSpaceOnUse" x="0" y="2.63672" width="26" height="34" fill="black">
<rect fill="white" y="2.63672" width="26" height="34"/>
<path fill-rule="evenodd" clip-rule="evenodd" d="M20.0993 25.5334C23.0712 23.327 25 19.7705 25 15.7591C25 9.06407 19.6274 3.63672 13 3.63672C6.37258 3.63672 1 9.06407 1 15.7591C1 19.7706 2.92885 23.327 5.90076 25.5334C8.16058 27.2536 11.3467 29.9679 12.0759 34.3379C12.1523 34.7957 12.5359 35.1511 13 35.1511C13.4641 35.1511 13.8477 34.7957 13.9241 34.3379C14.6534 29.9678 17.8394 27.2536 20.0993 25.5334Z"/>
</mask>
<path fill-rule="evenodd" clip-rule="evenodd" d="M20.0993 25.5334C23.0712 23.327 25 19.7705 25 15.7591C25 9.06407 19.6274 3.63672 13 3.63672C6.37258 3.63672 1 9.06407 1 15.7591C1 19.7706 2.92885 23.327 5.90076 25.5334C8.16058 27.2536 11.3467 29.9679 12.0759 34.3379C12.1523 34.7957 12.5359 35.1511 13 35.1511C13.4641 35.1511 13.8477 34.7957 13.9241 34.3379C14.6534 29.9678 17.8394 27.2536 20.0993 25.5334Z" fill="#AF1066"/>
<path d="M20.0993 25.5334L19.5031 24.7305L19.4936 24.7377L20.0993 25.5334ZM5.90076 25.5334L6.50649 24.7377L6.49687 24.7305L5.90076 25.5334ZM12.0759 34.3379L11.0895 34.5025L12.0759 34.3379ZM13.9241 34.3379L14.9105 34.5025L13.9241 34.3379ZM20.6954 26.3363C23.9124 23.9478 26 20.0979 26 15.7591H24C24 19.4432 22.2299 22.7061 19.5031 24.7305L20.6954 26.3363ZM26 15.7591C26 8.52137 20.1892 2.63672 13 2.63672V4.63672C19.0656 4.63672 24 9.60677 24 15.7591H26ZM13 2.63672C5.81076 2.63672 0 8.52137 0 15.7591H2C2 9.60677 6.93441 4.63672 13 4.63672V2.63672ZM0 15.7591C0 20.098 2.08756 23.9478 5.30465 26.3363L6.49687 24.7305C3.77015 22.7061 2 19.4432 2 15.7591H0ZM13.0622 34.1733C12.264 29.3899 8.78196 26.4698 6.50645 24.7377L5.29507 26.3291C7.53921 28.0374 10.4293 30.5458 11.0895 34.5025L13.0622 34.1733ZM13 34.1511C13.0128 34.1511 13.0263 34.1538 13.038 34.1584C13.0491 34.1627 13.0557 34.1677 13.0588 34.1705C13.0638 34.175 13.0627 34.1761 13.0622 34.1733L11.0895 34.5025C11.2386 35.396 12.0015 36.1511 13 36.1511V34.1511ZM12.9378 34.1733C12.9373 34.1761 12.9362 34.175 12.9412 34.1705C12.9443 34.1677 12.9509 34.1627 12.962 34.1584C12.9737 34.1538 12.9872 34.1511 13 34.1511V36.1511C13.9985 36.1511 14.7614 35.396 14.9105 34.5025L12.9378 34.1733ZM19.4936 24.7377C17.2181 26.4698 13.736 29.3899 12.9378 34.1733L14.9105 34.5025C15.5707 30.5458 18.4608 28.0374 20.7049 26.3291L19.4936 24.7377Z" fill="white" mask="url(#path-2-outside-1)"/>
<path d="M16.1341 12.3704C16.1341 12.3704 14.3298 11.8334 12.9958 11.8334C11.6618 11.8334 9.85742 12.3704 9.85742 12.3704C11.3368 12.9162 12.3886 14.3454 12.3886 16.0172C12.3886 16.7102 12.2091 17.3512 11.9012 17.9142H12.9958H13.0043H14.0989C13.7911 17.3512 13.6115 16.7015 13.6115 16.0172C13.6115 14.3454 14.6633 12.9162 16.1341 12.3704Z" fill="#F4F4F4"/>
<path d="M8.28399 12.561C6.29151 12.561 4.66675 14.2069 4.66675 16.2252C4.66675 18.2434 6.29151 19.8893 8.28399 19.8893C10.2765 19.8893 11.9012 18.2434 11.9012 16.2252C11.9012 14.2069 10.285 12.561 8.28399 12.561ZM8.28399 18.5466C7.02693 18.5466 6.00077 17.5072 6.00077 16.2338C6.00077 14.9518 7.02693 13.9123 8.28399 13.9123C9.54104 13.9123 10.5672 14.9518 10.5672 16.2252C10.5758 17.5072 9.54959 18.5466 8.28399 18.5466Z" fill="#F4F4F4"/>
<path d="M6.81307 15.0644C6.31709 15.714 6.35985 16.6149 6.87293 17.2126C6.69335 16.6062 6.79597 15.9133 7.20643 15.3762C7.6169 14.8305 8.2497 14.562 8.88251 14.5793C8.17274 14.2241 7.30905 14.406 6.81307 15.0644Z" fill="#F4F4F4"/>
<path d="M17.7161 12.561C15.7236 12.561 14.0989 14.2069 14.0989 16.2252C14.0989 18.2434 15.7236 19.8893 17.7161 19.8893C19.7086 19.8893 21.3334 18.2434 21.3334 16.2252C21.3334 14.2069 19.7086 12.561 17.7161 12.561ZM17.7161 18.5466C16.4591 18.5466 15.4329 17.5072 15.4329 16.2338C15.4329 14.9605 16.4591 13.921 17.7161 13.921C18.9732 13.921 19.9993 14.9605 19.9993 16.2338C19.9993 17.5072 18.9732 18.5466 17.7161 18.5466Z" fill="#F4F4F4"/>
<path d="M16.5616 14.7179C15.9203 15.2204 15.7407 16.0952 16.0827 16.8055C16.0571 16.1645 16.3307 15.5322 16.8695 15.1077C17.4082 14.6833 18.0838 14.588 18.6824 14.7699C18.0923 14.2588 17.203 14.2155 16.5616 14.7179Z" fill="#F4F4F4"/>
<defs>
<filter id="filter0_f" x="4" y="32" width="18" height="9" filterUnits="userSpaceOnUse" color-interpolation-filters="sRGB">
<feFlood flood-opacity="0" result="BackgroundImageFix"/>
<feBlend mode="normal" in="SourceGraphic" in2="BackgroundImageFix" result="shape"/>
<feGaussianBlur stdDeviation="1" result="effect1_foregroundBlur"/>
</filter>
</defs>
</svg>
