<svg width="26" height="41" viewBox="0 0 26 41" fill="none" xmlns="http://www.w3.org/2000/svg">
<g filter="url(#filter0_f)">
<ellipse cx="13" cy="36.5" rx="7" ry="2.5" fill="black" fill-opacity="0.12"/>
</g>
<mask id="path-2-outside-1" maskUnits="userSpaceOnUse" x="0" y="2.63672" width="26" height="34" fill="black">
<rect fill="white" y="2.63672" width="26" height="34"/>
<path fill-rule="evenodd" clip-rule="evenodd" d="M20.0993 25.5334C23.0712 23.327 25 19.7705 25 15.7591C25 9.06407 19.6274 3.63672 13 3.63672C6.37258 3.63672 1 9.06407 1 15.7591C1 19.7706 2.92885 23.327 5.90076 25.5334C8.16058 27.2536 11.3467 29.9679 12.0759 34.3379C12.1523 34.7957 12.5359 35.1511 13 35.1511C13.4641 35.1511 13.8477 34.7957 13.9241 34.3379C14.6534 29.9678 17.8394 27.2536 20.0993 25.5334Z"/>
</mask>
<path fill-rule="evenodd" clip-rule="evenodd" d="M20.0993 25.5334C23.0712 23.327 25 19.7705 25 15.7591C25 9.06407 19.6274 3.63672 13 3.63672C6.37258 3.63672 1 9.06407 1 15.7591C1 19.7706 2.92885 23.327 5.90076 25.5334C8.16058 27.2536 11.3467 29.9679 12.0759 34.3379C12.1523 34.7957 12.5359 35.1511 13 35.1511C13.4641 35.1511 13.8477 34.7957 13.9241 34.3379C14.6534 29.9678 17.8394 27.2536 20.0993 25.5334Z" fill="#38A76C"/>
<path d="M20.0993 25.5334L19.5031 24.7305L19.4936 24.7377L20.0993 25.5334ZM5.90076 25.5334L6.50649 24.7377L6.49687 24.7305L5.90076 25.5334ZM12.0759 34.3379L11.0895 34.5025L12.0759 34.3379ZM13.9241 34.3379L14.9105 34.5025L13.9241 34.3379ZM20.6954 26.3363C23.9124 23.9478 26 20.0979 26 15.7591H24C24 19.4432 22.2299 22.7061 19.5031 24.7305L20.6954 26.3363ZM26 15.7591C26 8.52137 20.1892 2.63672 13 2.63672V4.63672C19.0656 4.63672 24 9.60677 24 15.7591H26ZM13 2.63672C5.81076 2.63672 0 8.52137 0 15.7591H2C2 9.60677 6.93441 4.63672 13 4.63672V2.63672ZM0 15.7591C0 20.098 2.08756 23.9478 5.30465 26.3363L6.49687 24.7305C3.77015 22.7061 2 19.4432 2 15.7591H0ZM13.0622 34.1733C12.264 29.3899 8.78196 26.4698 6.50645 24.7377L5.29507 26.3291C7.53921 28.0374 10.4293 30.5458 11.0895 34.5025L13.0622 34.1733ZM13 34.1511C13.0128 34.1511 13.0263 34.1538 13.038 34.1584C13.0491 34.1627 13.0557 34.1677 13.0588 34.1705C13.0638 34.175 13.0627 34.1761 13.0622 34.1733L11.0895 34.5025C11.2386 35.396 12.0015 36.1511 13 36.1511V34.1511ZM12.9378 34.1733C12.9373 34.1761 12.9362 34.175 12.9412 34.1705C12.9443 34.1677 12.9509 34.1627 12.962 34.1584C12.9737 34.1538 12.9872 34.1511 13 34.1511V36.1511C13.9985 36.1511 14.7614 35.396 14.9105 34.5025L12.9378 34.1733ZM19.4936 24.7377C17.2181 26.4698 13.736 29.3899 12.9378 34.1733L14.9105 34.5025C15.5707 30.5458 18.4608 28.0374 20.7049 26.3291L19.4936 24.7377Z" fill="white" mask="url(#path-2-outside-1)"/>
<path d="M20.9537 16.4606H4.87502C4.75839 16.4606 4.66675 16.3682 4.66675 16.2506V15.6205C4.66675 15.2929 4.92501 15.0325 5.24991 15.0325H20.5788C20.9037 15.0325 21.162 15.2929 21.162 15.6205V16.2506C21.162 16.3682 21.0703 16.4606 20.9537 16.4606Z" fill="#F4F4F4"/>
<path d="M18.0796 13.6043H7.74929C7.63266 13.6043 7.54102 13.5119 7.54102 13.3943V12.8902C7.54102 12.7726 7.63266 12.6802 7.74929 12.6802H18.0796C18.1963 12.6802 18.2879 12.7726 18.2879 12.8902V13.3943C18.2879 13.5119 18.1963 13.6043 18.0796 13.6043Z" fill="#F4F4F4"/>
<path d="M18.0796 11.9241H7.74929C7.63266 11.9241 7.54102 11.8317 7.54102 11.7141V11.21C7.54102 11.0924 7.63266 11 7.74929 11H18.0796C18.1963 11 18.2879 11.0924 18.2879 11.21V11.7141C18.2879 11.8317 18.1963 11.9241 18.0796 11.9241Z" fill="#F4F4F4"/>
<path d="M10.8899 13.5539L6.68275 20.8963C6.63277 20.9887 6.51614 21.0223 6.4245 20.9635L5.95796 20.6947C5.86632 20.6443 5.833 20.5266 5.89132 20.4342L10.0984 13.0918C10.1484 12.9994 10.265 12.9658 10.3567 13.0246L10.8232 13.2934C10.9065 13.3523 10.9399 13.4699 10.8899 13.5539Z" fill="#F4F4F4"/>
<path d="M14.9388 13.5539L19.1459 20.8963C19.1959 20.9887 19.3125 21.0223 19.4041 20.9635L19.8707 20.6947C19.9623 20.6443 19.9956 20.5266 19.9373 20.4342L15.7302 13.0918C15.6802 12.9994 15.5636 12.9658 15.4719 13.0246L15.0054 13.2934C14.9221 13.3523 14.8888 13.4699 14.9388 13.5539Z" fill="#F4F4F4"/>
<defs>
<filter id="filter0_f" x="4" y="32" width="18" height="9" filterUnits="userSpaceOnUse" color-interpolation-filters="sRGB">
<feFlood flood-opacity="0" result="BackgroundImageFix"/>
<feBlend mode="normal" in="SourceGraphic" in2="BackgroundImageFix" result="shape"/>
<feGaussianBlur stdDeviation="1" result="effect1_foregroundBlur"/>
</filter>
</defs>
</svg>
